<svg width="378" height="442" viewBox="0 0 378 442" fill="none" xmlns="http://www.w3.org/2000/svg">
<path fill-rule="evenodd" clip-rule="evenodd" d="M295.541 -128.962C346.528 -135.615 395.528 -109.16 439.2 -82.0159C483.369 -54.5613 516.062 -15.2851 546.394 26.9604C583.238 78.275 640.249 127.358 634.714 190.287C629.186 253.128 570.653 298.79 519.263 335.378C474.905 366.96 417.657 364.271 366.029 381.583C311.7 399.8 264.03 451.626 207.971 439.758C151.82 427.872 122.941 366.987 86.7302 322.457C51.6638 279.334 -0.528329 239.591 0.00404062 184.013C0.536114 128.466 55.9703 91.755 89.3652 47.3641C115.372 12.7947 141.237 -19.308 174.113 -47.4243C211.931 -79.7674 246.197 -122.523 295.541 -128.962Z" fill="#140F11"/>
</svg>
